<?xml version="1.0" standalone="no"?><!DOCTYPE svg PUBLIC "-//W3C//DTD SVG 1.1//EN" "http://www.w3.org/Graphics/SVG/1.1/DTD/svg11.dtd"><svg t="1740730791913" class="icon" viewBox="0 0 1024 1024" version="1.1" xmlns="http://www.w3.org/2000/svg" p-id="7852" width="128" height="128" xmlns:xlink="http://www.w3.org/1999/xlink"><path d="M755.11 260.43l-96.98 55.99V204.45l0.01-0.01z" fill="#7DDBD2" p-id="7853"></path><path d="M755.11 260.43v111.99l-96.98 55.98V316.42z" fill="#A4FFF8" p-id="7854"></path><path d="M658.13 316.42V428.4l-96.96-55.98z" fill="#3D827B" p-id="7855"></path><path d="M755.11 484.39v111.98l-96.97 55.99h-0.01V540.38z" fill="#A4FFF8" p-id="7856"></path><path d="M755.11 484.39l-96.98 55.99-96.96-55.99 96.96-55.98z" fill="#7DDBD2" p-id="7857"></path><path d="M561.17 484.39l96.96 55.99v111.97l-96.96-55.98h-0.02V484.39z" fill="#3D827B" p-id="7858"></path><path d="M561.17 708.36l96.96-56v111.99l-96.96 55.98h-0.02v0.01l-96.96 55.98h-0.01V764.33l96.97-55.97z" fill="#A4FFF8" p-id="7859"></path><path d="M464.18 764.35v111.97l-96.96-55.99z" fill="#3D827B" p-id="7860"></path><path d="M658.13 652.35v0.01l-96.96 56h-0.02l-96.97 55.97V652.35l96.97-55.98h0.02z" fill="#7DDBD2" p-id="7861"></path><path d="M367.22 484.39l96.96-55.98v335.94l-96.96 55.98h-0.02V484.39z" fill="#A4FFF8" p-id="7862"></path><path d="M367.2 484.39v335.94l-96.97-56V428.41l0.01-0.01z" fill="#3D827B" p-id="7863"></path><path d="M464.18 428.4v0.01l-96.96 55.98h-0.02l-96.96-55.99 96.96-55.98h0.02z" fill="#7DDBD2" p-id="7864"></path><path d="M464.18 316.42V428.4l-96.96-55.98h-0.02V260.43z" fill="#3D827B" p-id="7865"></path><path d="M658.13 204.44v0.01l-96.96 55.98h-0.02v0.02l-96.96 55.97h-0.01l-96.98-55.99 96.98-55.99 96.97-55.98v-0.01h0.02z" fill="#7DDBD2" p-id="7866"></path><path d="M464.19 316.42l96.96-55.97v-0.02h0.02l96.96-55.98v111.97l-96.96 56h-0.02l-96.96 55.98h-0.01V316.42z" fill="#A4FFF8" p-id="7867"></path></svg>